HIERARCHY
ROOT joint1
{
  OFFSET -2.24343 25.1844 -2.1224
  CHANNELS 6 Xposition Yposition Zposition Zrotation Xrotation Yrotation
  JOINT joint2
  {
    OFFSET 0 -16 0
    CHANNELS 6 Xposition Yposition Zposition Zrotation Xrotation Yrotation
    End Site
    {
      OFFSET 0 0 0
    }
  }
}
MOTION
Frames:	90
Frame Time:	0.0166667
-2.24945 25.1821 -2.12231 24.1144 1.49038 -9.69038 -2.66454e-015 -16 -8.88178e-016 6.4605e-016 1.98785e-016 -3.18055e-015 
-2.24864 25.1811 -2.12231 24.1431 1.49038 -9.69038 8.88178e-016 -16 -1.77636e-015 4.96962e-016 -5.96354e-016 -1.59028e-015 
-2.2479 25.1799 -2.12231 24.1735 1.49038 -9.69038 -2.66454e-015 -16 -8.88178e-016 -2.48481e-015 -7.95139e-016 -0 
-2.24685 25.1783 -2.12231 24.203 1.49038 -9.69038 0 -16 -8.88178e-016 3.97569e-016 9.93923e-016 -1.59028e-015 
-2.24563 25.1764 -2.12231 24.2325 1.49038 -9.69038 8.88178e-016 -16 0 3.47873e-015 5.96354e-016 -1.59028e-015 
-2.24426 25.1743 -2.12231 24.2621 1.49038 -9.69038 -8.88178e-016 -16 -8.88178e-016 3.57812e-015 2.18663e-015 -0 
-2.24275 25.1723 -2.12231 24.2916 1.49038 -9.69038 8.88178e-016 -16 -1.77636e-015 7.45443e-016 7.95139e-016 -0 
-2.24113 25.1702 -2.12231 24.3211 1.49038 -9.69038 1.77636e-015 -16 -8.88178e-016 7.00716e-015 0 -3.18055e-015 
-2.2394 25.1682 -2.12231 24.3507 1.49038 -9.69038 -8.88178e-016 -16 0 2.98177e-016 2.18663e-015 1.59028e-015 
-2.23759 25.1661 -2.12231 24.3802 1.49038 -9.69038 -8.88178e-016 -16 -8.88178e-016 3.97569e-016 -1.98785e-016 -1.59028e-015 
-2.2357 25.164 -2.12231 24.4097 1.49038 -9.69038 -8.88178e-016 -16 -1.77636e-015 3.97569e-016 -5.96354e-016 -1.59028e-015 
-2.23375 25.1619 -2.12231 24.4392 1.49038 -9.69038 -8.88178e-016 -16 -8.88178e-016 5.46658e-016 -1.98785e-016 -3.18055e-015 
-2.23175 25.1598 -2.12231 24.4687 1.49038 -9.69038 0 -16 -8.88178e-016 3.97569e-016 1.98785e-016 -1.59028e-015 
-2.22972 25.1578 -2.12231 24.4983 1.49038 -9.69038 8.88178e-016 -16 -1.77636e-015 -2.33572e-015 -2.38542e-015 -0 
-2.22768 25.1557 -2.12231 24.5278 1.49038 -9.69038 -8.88178e-016 -16 -8.88178e-016 5.46658e-016 3.97569e-016 -3.18055e-015 
-2.22563 25.1533 -2.12231 24.5573 1.49038 -9.69038 0 -16 0 -2.6339e-015 -7.95139e-016 -0 
-2.2236 25.1508 -2.12231 24.5868 1.49038 -9.69038 -2.66454e-015 -16 -8.88178e-016 3.8763e-015 3.97569e-016 -1.59028e-015 
-2.2216 25.1484 -2.12231 24.6164 1.49038 -9.69038 0 -16 -1.77636e-015 -2.5345e-015 -1.98785e-016 -0 
-2.21964 25.1459 -2.12231 24.6459 1.49038 -9.69038 -8.88178e-016 -16 -8.88178e-016 -2.5345e-015 -7.95139e-016 -1.59028e-015 
-2.21774 25.1435 -2.12231 24.6754 1.49038 -9.69038 -1.77636e-015 -16 -1.77636e-015 8.94531e-016 -1.59028e-015 -3.18055e-015 
-2.21592 25.1411 -2.12231 24.7049 1.49038 -9.69038 -8.88178e-016 -16 0 -2.48481e-015 -1.19271e-015 -1.59028e-015 
-2.21419 25.1386 -2.12231 24.7344 1.49038 -9.69038 0 -16 0 7.95139e-016 -1.59028e-015 -3.18055e-015 
-2.21255 25.1362 -2.12231 24.764 1.49038 -9.69038 0 -16 -8.88178e-016 4.96962e-016 -3.97569e-016 -0 
-2.21104 25.1339 -2.12231 24.7935 1.49038 -9.69038 -1.77636e-015 -16 -8.88178e-016 3.47873e-016 0 -1.59028e-015 
-2.20967 25.1315 -2.12231 24.823 1.49038 -9.69038 -8.88178e-016 -16 0 4.96962e-016 1.98785e-016 -0 
-2.20844 25.1292 -2.12231 24.8525 1.49038 -9.69038 -8.88178e-016 -16 -8.88178e-016 3.8266e-015 7.95139e-016 1.59028e-015 
-2.20738 25.1269 -2.12231 24.8821 1.49038 -9.69038 0 -16 -1.77636e-015 7.45443e-016 -5.96354e-016 -1.59028e-015 
-2.20651 25.1246 -2.12231 24.9116 1.49038 -9.69038 8.88178e-016 -16 -8.88178e-016 7.45443e-016 -9.93923e-016 -1.59028e-015 
-2.20581 25.1223 -2.12231 24.9411 1.49038 -9.69038 0 -16 0 -2.43511e-015 -1.19271e-015 -1.59028e-015 
-2.20527 25.12 -2.12231 24.9702 1.49038 -9.69038 1.77636e-015 -16 -1.77636e-015 7.95139e-016 -3.97569e-016 -3.18055e-015 
-2.20476 25.1178 -2.12231 24.9992 1.49038 -9.69038 0 -16 -1.77636e-015 5.46658e-016 -1.39149e-015 -0 
-2.20413 25.1154 -2.12231 25.0278 1.49038 -9.69038 0 -16 0 -2.48481e-015 -3.97569e-016 -1.59028e-015 
-2.20343 25.1131 -2.12231 25.0562 1.49038 -9.69038 0 -16 -8.88178e-016 -2.73329e-015 -5.96354e-016 -1.59028e-015 
-2.20269 25.1108 -2.12231 25.0848 1.49038 -9.69038 -1.77636e-015 -16 -8.88178e-016 5.46658e-016 -1.98785e-016 -0 
-2.20192 25.1084 -2.12231 25.1133 1.49038 -9.69038 1.77636e-015 -16 0 1.98785e-016 -3.97569e-016 -1.59028e-015 
-2.20115 25.1061 -2.12231 25.1418 1.49038 -9.69038 0 -16 -8.88178e-016 4.02539e-015 5.96354e-016 -3.18055e-015 
-2.20038 25.1037 -2.12231 25.1704 1.49038 -9.69038 1.77636e-015 -16 -8.88178e-016 3.77691e-015 -2.38542e-015 1.59028e-015 
-2.19964 25.1014 -2.12231 25.1989 1.49038 -9.69038 0 -16 -1.77636e-015 8.44835e-016 -1.39149e-015 -0 
-2.19893 25.099 -2.12231 25.2274 1.49038 -9.69038 0 -16 0 7.45443e-016 -1.19271e-015 -1.59028e-015 
-2.19829 25.0966 -2.12231 25.256 1.49038 -9.69038 0 -16 0 6.85807e-015 0 -1.59028e-015 
-2.19771 25.0942 -2.12231 25.2845 1.49038 -9.69038 1.77636e-015 -16 -1.77636e-015 3.97569e-015 -1.19271e-015 -4.77083e-015 
-2.19725 25.0916 -2.12231 25.3131 1.49038 -9.69038 1.77636e-015 -16 -1.77636e-015 -2.28602e-015 -3.97569e-016 -1.59028e-015 
-2.19689 25.089 -2.12231 25.3416 1.49038 -9.69038 0 -16 0 6.95746e-016 -1.98785e-016 -1.59028e-015 
-2.19661 25.0865 -2.12231 25.3701 1.49038 -9.69038 1.77636e-015 -16 0 -5.66536e-015 -1.78906e-015 -1.59028e-015 
-2.1965 25.0841 -2.12231 25.3987 1.49038 -9.69038 -1.77636e-015 -16 -8.88178e-016 -6.11263e-015 -5.96354e-016 -3.18055e-015 
-2.19655 25.0819 -2.12231 25.4272 1.49038 -9.69038 -1.77636e-015 -16 -8.88178e-016 3.8266e-015 -5.96354e-016 -0 
-2.19677 25.0798 -2.12231 25.4557 1.49038 -9.69038 -1.77636e-015 -16 -8.88178e-016 -2.5345e-015 -7.95139e-016 -1.59028e-015 
-2.19722 25.078 -2.12231 25.4843 1.49038 -9.69038 0 -16 -8.88178e-016 -2.5345e-015 -1.59028e-015 -3.18055e-015 
-2.19788 25.0762 -2.12231 25.5128 1.49038 -9.69038 0 -16 -1.77636e-015 -5.96354e-015 1.98785e-016 -0 
-2.19872 25.0745 -2.12231 25.5413 1.49038 -9.69038 0 -16 -8.88178e-016 3.97569e-016 1.19271e-015 -1.59028e-015 
-2.19976 25.0728 -2.12231 25.5699 1.49038 -9.69038 -3.55271e-015 -16 0 5.46658e-016 -1.98785e-016 -1.59028e-015 
-2.20087 25.0711 -2.12231 25.5984 1.49038 -9.69038 0 -16 -8.88178e-016 6.95746e-016 3.97569e-016 -1.59028e-015 
-2.2024 25.0695 -2.12231 25.627 1.49038 -9.69038 0 -16 -1.77636e-015 -6.16232e-015 3.97569e-016 -3.18055e-015 
-2.20483 25.0679 -2.12231 25.6555 1.49038 -9.69038 0 -16 0 3.57812e-015 1.19271e-015 -4.77083e-015 
-2.20773 25.0663 -2.12231 25.684 1.49038 -9.69038 -1.77636e-015 -16 0 4.96962e-016 -3.97569e-016 1.59028e-015 
-2.21081 25.0647 -2.12231 25.712 1.49038 -9.69038 -1.77636e-015 -16 -1.77636e-015 6.95746e-016 -3.97569e-016 -3.18055e-015 
-2.21418 25.0631 -2.12231 25.7404 1.49038 -9.69038 1.77636e-015 -16 0 6.95746e-015 -3.97569e-016 -1.59028e-015 
-2.21884 25.0613 -2.12231 25.7783 1.49038 -9.69038 -1.77636e-015 -16 -8.88178e-016 7.45443e-016 0 -0 
-2.22175 25.0598 -2.12231 25.8015 1.49038 -9.69038 -1.77636e-015 -16 -8.88178e-016 -2.33572e-015 -1.19271e-015 -1.59028e-015 
-2.22166 25.0593 -2.12231 25.8014 1.49038 -9.69038 0 -16 -8.88178e-016 3.8266e-015 1.98785e-016 -0 
-2.22099 25.0592 -2.12231 25.8012 1.49038 -9.69038 0 -16 0 5.96354e-016 -1.98785e-016 -1.59028e-015 
-2.21701 25.06 -2.12231 25.7778 1.49038 -9.69038 -1.77636e-015 -16 -8.88178e-016 3.47873e-015 -7.95139e-016 -0 
-2.21172 25.0612 -2.12231 25.7396 1.49038 -9.69038 0 -16 -8.88178e-016 6.90777e-015 -5.96354e-016 -0 
-2.20859 25.062 -2.12231 25.7104 1.49038 -9.69038 1.77636e-015 -16 0 5.46658e-016 -5.96354e-016 -1.59028e-015 
-2.20603 25.063 -2.12231 25.6816 1.49038 -9.69038 0 -16 0 -2.83268e-015 7.95139e-016 -1.59028e-015 
-2.20359 25.0648 -2.12231 25.6525 1.49038 -9.69038 0 -16 -8.88178e-016 3.72721e-015 3.97569e-016 -1.59028e-015 
-2.20129 25.0668 -2.12231 25.6235 1.49038 -9.69038 -1.77636e-015 -16 0 3.97569e-016 2.38542e-015 -1.59028e-015 
-2.19894 25.0689 -2.12231 25.5945 1.49038 -9.69038 0 -16 -8.88178e-016 6.95746e-016 -2.18663e-015 -3.18055e-015 
-2.19673 25.071 -2.12231 25.5655 1.49038 -9.69038 1.77636e-015 -16 -1.77636e-015 2.98177e-016 -5.96354e-016 -3.18055e-015 
-2.19473 25.073 -2.12231 25.5364 1.49038 -9.69038 0 -16 0 1.04362e-015 -1.19271e-015 -3.18055e-015 
-2.19305 25.0751 -2.12231 25.5074 1.49038 -9.69038 0 -16 -8.88178e-016 3.57812e-015 9.93923e-016 -0 
-2.19186 25.0772 -2.12231 25.4784 1.49038 -9.69038 0 -16 -8.88178e-016 -2.43511e-015 5.96354e-016 -1.59028e-015 
-2.19094 25.0793 -2.12231 25.4493 1.49038 -9.69038 -1.77636e-015 -16 -8.88178e-016 4.96962e-016 0 -1.59028e-015 
-2.19008 25.0814 -2.12231 25.4203 1.49038 -9.69038 0 -16 0 7.45443e-016 -2.18663e-015 -1.59028e-015 
-2.1894 25.0835 -2.12231 25.3913 1.49038 -9.69038 -1.77636e-015 -16 0 3.97569e-016 -9.93923e-016 -0 
-2.18896 25.0856 -2.12231 25.3623 1.49038 -9.69038 0 -16 -8.88178e-016 3.67752e-015 5.96354e-016 -1.59028e-015 
-2.18878 25.0877 -2.12231 25.3332 1.49038 -9.69038 0 -16 0 4.96962e-016 -1.98785e-016 -0 
-2.1888 25.0901 -2.12231 25.3042 1.49038 -9.69038 -1.77636e-015 -16 0 3.57812e-015 -9.93923e-016 -0 
-2.18893 25.0926 -2.12231 25.2752 1.49038 -9.69038 0 -16 -1.77636e-015 7.10655e-015 1.78906e-015 -0 
-2.18922 25.0951 -2.12231 25.2461 1.49038 -9.69038 -1.77636e-015 -16 -8.88178e-016 3.97569e-016 1.98785e-015 -0 
-2.18966 25.0976 -2.12231 25.2171 1.49038 -9.69038 1.77636e-015 -16 0 5.46658e-016 3.97569e-016 -1.59028e-015 
-2.19028 25.1001 -2.12231 25.1881 1.49038 -9.69038 0 -16 -8.88178e-016 5.46658e-016 -1.59028e-015 -1.59028e-015 
-2.19104 25.1026 -2.12231 25.159 1.49038 -9.69038 -3.55271e-015 -16 -8.88178e-016 3.926e-015 3.97569e-016 -1.59028e-015 
-2.19193 25.1051 -2.12231 25.13 1.49038 -9.69038 0 -16 -8.88178e-016 6.95746e-016 -1.19271e-015 -0 
-2.19295 25.1076 -2.12231 25.101 1.49038 -9.69038 0 -16 -8.88178e-016 6.4605e-016 -1.19271e-015 -3.18055e-015 
-2.19409 25.1102 -2.12231 25.072 1.49038 -9.69038 -1.77636e-015 -16 -8.88178e-016 -2.78299e-015 -9.93923e-016 -0 
-2.19535 25.1128 -2.12231 25.0429 1.49038 -9.69038 0 -16 -1.77636e-015 7.95139e-016 0 -1.59028e-015 
-2.19671 25.1154 -2.12231 25.0139 1.49038 -9.69038 -1.77636e-015 -16 -8.88178e-016 -2.73329e-015 -1.19271e-015 -1.59028e-015 
-2.19816 25.118 -2.12231 24.9849 1.49038 -9.69038 0 -16 -8.88178e-016 -5.81445e-015 0 -0 
-2.19971 25.1206 -2.12231 24.9559 1.49038 -9.69038 0 -16 0 7.45443e-016 1.59028e-015 -1.59028e-015 
